<?xml version="1.0" encoding="UTF-8"?>
<svg version="1.1" xmlns="http://www.w3.org/2000/svg" width="512" height="512">
<path d="M0 0 C4.23835131 1.08999045 8.19594865 1.35723507 12.55078125 1.5078125 C28.78747865 2.14562384 41.45130772 8.11889559 52.67578125 19.9453125 C65.71222971 34.88065496 74.28652496 51.71467313 77.48828125 71.3203125 C77.60010742 72.00101807 77.71193359 72.68172363 77.82714844 73.38305664 C80.48309984 92.04896431 79.94915553 111.28896146 80.22802734 130.09326172 C80.28000023 133.51536613 80.33707279 136.93735897 80.39453125 140.359375 C80.41489441 141.90644638 80.41489441 141.90644638 80.43566895 143.48477173 C80.39494391 155.99030676 80.39494391 155.99030676 85.67578125 166.9453125 C87.8954984 173.64715081 87.50508396 181.62583177 84.7421875 188.0859375 C82.83199685 191.41652632 80.33328933 194.19320057 77.67578125 196.9453125 C78.66578125 198.2653125 79.65578125 199.5853125 80.67578125 200.9453125 C80.02704041 201.82264542 79.37829956 202.69997833 78.7098999 203.60389709 C75.55727919 209.17424697 76.10509064 215.17224436 76.12988281 221.40795898 C76.12113846 222.76859209 76.11064968 224.12921493 76.09855652 225.48982239 C76.0707808 229.16705896 76.06728995 232.8439586 76.06827641 236.52128482 C76.06514 240.37039085 76.03950672 244.21934674 76.01629639 248.06837463 C75.97578837 255.34966244 75.95540795 262.6308608 75.94232249 269.9122439 C75.92643478 278.20495246 75.88801174 286.49750919 75.84772921 294.79012954 C75.76540146 311.84181185 75.71126492 328.89346968 75.67578125 345.9453125 C77.0836792 346.39209351 77.0836792 346.39209351 78.52001953 346.84790039 C88.08516785 350.17416851 94.4839809 358.6456595 99.67578125 366.9453125 C100.09730469 367.61691406 100.51882813 368.28851563 100.953125 368.98046875 C107.64833945 381.68874372 107.24823256 399.30874035 108.86328125 413.3828125 C108.95399902 414.15976471 109.0447168 414.93671692 109.13818359 415.73721313 C110.19252542 424.84159405 110.96727946 433.76144359 110.67578125 442.9453125 C110.34578125 442.9453125 110.01578125 442.9453125 109.67578125 442.9453125 C109.34578125 440.3053125 109.01578125 437.6653125 108.67578125 434.9453125 C109.00578125 440.5553125 109.33578125 446.1653125 109.67578125 451.9453125 C54.63513705 487.75488825 -12.11092063 499.50461095 -76.13720703 486.36816406 C-106.67438839 479.85637477 -144.88532574 469.73454733 -169.32421875 448.9453125 C-169.86031941 445.54107328 -169.50429985 442.41187373 -169.32421875 438.9453125 C-169.98421875 442.2453125 -170.64421875 445.5453125 -171.32421875 448.9453125 C-172.30954155 445.0040213 -172.25569882 442.92646378 -171.75097656 438.97436523 C-171.60041809 437.76888535 -171.44985962 436.56340546 -171.29473877 435.32139587 C-171.12399841 434.0203743 -170.95325806 432.71935272 -170.77734375 431.37890625 C-170.60331327 430.02097435 -170.42971591 428.66298687 -170.25653076 427.3049469 C-169.8913853 424.45549178 -169.5208257 421.60680609 -169.14648438 418.75854492 C-168.67109217 415.13794741 -168.20925885 411.51577866 -167.75163651 407.89289761 C-167.39521844 405.08401262 -167.03129367 402.27613719 -166.66524506 399.46849251 C-166.40909873 397.49349015 -166.15920664 395.51767982 -165.90948486 393.54185486 C-163.42513399 374.8514923 -158.25537039 360.22403177 -142.88671875 348.3203125 C-139.63913588 345.9453125 -139.63913588 345.9453125 -137.32421875 345.9453125 C-137.65421875 299.0853125 -137.98421875 252.2253125 -138.32421875 203.9453125 C-140.79921875 204.9353125 -140.79921875 204.9353125 -143.32421875 205.9453125 C-144.65098383 206.30389766 -145.98257796 206.6471701 -147.32421875 206.9453125 C-145.55992676 201.97321688 -142.93030215 197.51093189 -140.32421875 192.9453125 C-140.67355469 192.47480469 -141.02289063 192.00429687 -141.3828125 191.51953125 C-141.83785156 190.89691406 -142.29289062 190.27429688 -142.76171875 189.6328125 C-143.21417969 189.01792969 -143.66664063 188.40304688 -144.1328125 187.76953125 C-147.82100632 182.12236235 -146.83499845 174.4174289 -146.32421875 167.9453125 C-145.25499319 164.54809129 -143.89468763 161.51578138 -141.32421875 158.9453125 C-142.23171875 158.3884375 -143.13921875 157.8315625 -144.07421875 157.2578125 C-148.2639531 154.27665536 -151.49827636 150.81449221 -153.32421875 145.9453125 C-153.44921875 143.1953125 -153.44921875 143.1953125 -153.32421875 140.9453125 C-152.41929687 140.59919922 -152.41929687 140.59919922 -151.49609375 140.24609375 C-146.60261896 138.24924033 -143.04691419 136.71002953 -140.32421875 131.9453125 C-139.24629594 127.08178983 -139.17515604 122.34334444 -139.1484375 117.390625 C-139.12520775 115.70571711 -139.10108921 114.02082128 -139.07617188 112.3359375 C-139.04139283 109.7189969 -139.01188591 107.10249283 -138.99829102 104.48535156 C-138.8086608 73.85277775 -127.34043214 48.55174632 -106.13671875 26.3828125 C-78.56340552 -0.42775347 -37.09089663 -11.01557262 0 0 Z M-167.32421875 416.9453125 C-168.17103008 422.02618046 -168.41459974 426.79359627 -168.32421875 431.9453125 C-167.99421875 431.9453125 -167.66421875 431.9453125 -167.32421875 431.9453125 C-166.47740742 426.86444454 -166.23383776 422.09702873 -166.32421875 416.9453125 C-166.65421875 416.9453125 -166.98421875 416.9453125 -167.32421875 416.9453125 Z " fill="#F4D4C2" transform="translate(285.32421875,15.0546875)"/>
<path d="M0 0 C3.4959375 1.8253125 3.4959375 1.8253125 7.0625 3.6875 C21.46676614 11.00855374 36.18494074 14.71880877 52.1875 16.5625 C53.28505615 16.69180908 54.3826123 16.82111816 55.51342773 16.9543457 C63.33842939 17.85729717 71.13480988 18.54797758 79 19 C79.33 22.96 79.66 26.92 80 31 C81.26585937 31.1959375 82.53171875 31.391875 83.8359375 31.59375 C95.44985824 33.46580909 106.93913299 35.76430769 118.39630127 38.42089844 C119.86265797 38.76079281 121.32972721 39.09763018 122.79754639 39.43115234 C140.72641304 43.52191072 155.55414874 48.39257912 166.31640625 64.30859375 C166.87199219 65.19675781 167.42757813 66.08492188 168 67 C168.42152344 67.67160156 168.84304688 68.34320313 169.27734375 69.03515625 C175.9725582 81.74343122 175.57245131 99.36342785 177.1875 113.4375 C177.27821777 114.21445221 177.36893555 114.99140442 177.46240234 115.79190063 C178.51674417 124.89628155 179.29149821 133.81613109 179 143 C178.67 143 178.34 143 178 143 C177.67 140.36 177.34 137.72 177 135 C177.33 140.61 177.66 146.22 178 152 C122.9593558 187.80957575 56.21329812 199.55929845 -7.81298828 186.42285156 C-38.35016964 179.91106227 -76.56110699 169.78923483 -101 149 C-101.53610066 145.59576078 -101.1800811 142.46656123 -101 139 C-101.66 142.3 -102.32 145.6 -103 149 C-103.9853228 145.0587088 -103.93148007 142.98115128 -103.42675781 139.02905273 C-103.27619934 137.82357285 -103.12564087 136.61809296 -102.97052002 135.37608337 C-102.79977966 134.0750618 -102.62903931 132.77404022 -102.453125 131.43359375 C-102.27909452 130.07566185 -102.10549716 128.71767437 -101.93231201 127.3596344 C-101.56716655 124.51017928 -101.19660695 121.66149359 -100.82226562 118.81323242 C-100.34687342 115.19263491 -99.8850401 111.57046616 -99.42741776 107.94758511 C-99.07099969 105.13870012 -98.70707492 102.33082469 -98.34102631 99.52318001 C-98.08487998 97.54817765 -97.83498789 95.57236732 -97.58526611 93.59654236 C-95.08971956 74.82195199 -89.86311782 60.09350737 -74.375 48.1875 C-63.81384874 41.39391443 -50.85513325 39.06742355 -38.68383789 36.74194336 C-36.4335278 36.31174062 -34.18645044 35.86707458 -31.93945312 35.41992188 C-9.49690027 31 -9.49690027 31 0 31 C0 20.77 0 10.54 0 0 Z M-99 117 C-99.84681133 122.08086796 -100.09038099 126.84828377 -100 132 C-99.67 132 -99.34 132 -99 132 C-98.15318867 126.91913204 -97.90961901 122.15171623 -98 117 C-98.33 117 -98.66 117 -99 117 Z " fill="#FEFEFE" transform="translate(217,315)"/>
<path d="M0 0 C4.23835131 1.08999045 8.19594865 1.35723507 12.55078125 1.5078125 C28.78747865 2.14562384 41.45130772 8.11889559 52.67578125 19.9453125 C65.71222971 34.88065496 74.28652496 51.71467313 77.48828125 71.3203125 C77.60010742 72.00101807 77.71193359 72.68172363 77.82714844 73.38305664 C80.43719064 91.7263165 79.94171271 110.58200915 80.20800781 129.06365967 C80.25912495 132.55745402 80.31432969 136.05118386 80.36914062 139.54492188 C80.47524493 146.34499579 80.57698865 153.14512851 80.67578125 159.9453125 C77.70384275 158.82079523 75.34137438 157.72237459 72.67578125 155.9453125 C72.7221875 156.62078125 72.76859375 157.29625 72.81640625 157.9921875 C73.11261047 165.31266328 73.11261047 165.31266328 70.86328125 168.5703125 C68.67578125 169.9453125 68.67578125 169.9453125 65.67578125 169.9453125 C65.66643555 169.14947754 65.65708984 168.35364258 65.64746094 167.53369141 C65.59331197 163.87863599 65.50975049 160.22479966 65.42578125 156.5703125 C65.41160156 155.31863281 65.39742187 154.06695312 65.3828125 152.77734375 C65.0613962 140.49924094 61.61091199 130.11368755 52.93359375 121.14453125 C49.13640689 117.7176095 45.04151796 114.72569828 40.92578125 111.6953125 C22.46604941 97.99637117 9.04386248 81.90145404 1.67578125 59.9453125 C0.92554688 60.94949219 0.1753125 61.95367187 -0.59765625 62.98828125 C-3.83210631 67.31312094 -7.07559634 71.63111002 -10.32421875 75.9453125 C-10.76121094 76.52603516 -11.19820312 77.10675781 -11.6484375 77.70507812 C-25.1090873 95.54370626 -39.60505702 112.62899945 -54.71484375 129.08984375 C-56.38533642 130.86069672 -56.38533642 130.86069672 -57.32421875 132.9453125 C-56.70546875 133.0896875 -56.08671875 133.2340625 -55.44921875 133.3828125 C-53.32421875 133.9453125 -53.32421875 133.9453125 -51.32421875 134.9453125 C-51.32421875 135.9353125 -51.32421875 136.9253125 -51.32421875 137.9453125 C-52.50564453 137.93564453 -52.50564453 137.93564453 -53.7109375 137.92578125 C-63.91485155 138.56579006 -68.41316217 142.93663579 -74.9375 150.171875 C-75.72511719 151.08710938 -76.51273437 152.00234375 -77.32421875 152.9453125 C-76.69515625 153.10386719 -76.06609375 153.26242188 -75.41796875 153.42578125 C-66.40235335 155.88335111 -58.34468899 159.67115772 -53.32421875 167.9453125 C-52.60475503 170.38958327 -52.42918843 172.37355542 -52.32421875 174.9453125 C-53.64421875 175.2753125 -54.96421875 175.6053125 -56.32421875 175.9453125 C-59.93057914 171.47705466 -62.90458466 167.62384885 -64.32421875 161.9453125 C-65.64421875 162.2753125 -66.96421875 162.6053125 -68.32421875 162.9453125 C-68.65421875 164.2653125 -68.98421875 165.5853125 -69.32421875 166.9453125 C-68.33421875 167.2753125 -67.34421875 167.6053125 -66.32421875 167.9453125 C-66.63659679 170.83480934 -66.96760754 172.53164349 -68.88671875 174.7578125 C-72.37917683 176.45926643 -75.56875842 176.71871423 -79.32421875 175.9453125 C-82.32421875 173.9453125 -82.32421875 173.9453125 -84.32421875 170.9453125 C-84.72377999 168.13800563 -84.56646113 165.80377256 -84.32421875 162.9453125 C-89.56544468 164.59255494 -92.74116645 167.63669456 -95.82421875 172.1328125 C-97.32421875 173.9453125 -97.32421875 173.9453125 -99.42578125 174.6640625 C-103.59121741 176.50538738 -106.73323982 179.33926389 -110.19921875 182.2578125 C-120.45285477 190.81543122 -120.45285477 190.81543122 -125.32421875 193.9453125 C-126.31421875 193.7390625 -127.30421875 193.5328125 -128.32421875 193.3203125 C-131.30417533 192.6051196 -131.30417533 192.6051196 -133.25390625 194.3125 C-135.12266634 196.12121961 -136.81767644 197.82367303 -138.32421875 199.9453125 C-138.32421875 200.9353125 -138.32421875 201.9253125 -138.32421875 202.9453125 C-145.07421875 206.9453125 -145.07421875 206.9453125 -147.32421875 206.9453125 C-145.55992676 201.97321688 -142.93030215 197.51093189 -140.32421875 192.9453125 C-140.67355469 192.47480469 -141.02289063 192.00429687 -141.3828125 191.51953125 C-142.06537109 190.58560547 -142.06537109 190.58560547 -142.76171875 189.6328125 C-143.21417969 189.01792969 -143.66664063 188.40304688 -144.1328125 187.76953125 C-147.82100632 182.12236235 -146.83499845 174.4174289 -146.32421875 167.9453125 C-145.25499319 164.54809129 -143.89468763 161.51578138 -141.32421875 158.9453125 C-142.23171875 158.3884375 -143.13921875 157.8315625 -144.07421875 157.2578125 C-148.2639531 154.27665536 -151.49827636 150.81449221 -153.32421875 145.9453125 C-153.44921875 143.1953125 -153.44921875 143.1953125 -153.32421875 140.9453125 C-152.41929687 140.59919922 -152.41929687 140.59919922 -151.49609375 140.24609375 C-146.60261896 138.24924033 -143.04691419 136.71002953 -140.32421875 131.9453125 C-139.24629594 127.08178983 -139.17515604 122.34334444 -139.1484375 117.390625 C-139.12520775 115.70571711 -139.10108921 114.02082128 -139.07617188 112.3359375 C-139.04139283 109.7189969 -139.01188591 107.10249283 -138.99829102 104.48535156 C-138.8086608 73.85277775 -127.34043214 48.55174632 -106.13671875 26.3828125 C-78.56340552 -0.42775347 -37.09089663 -11.01557262 0 0 Z " fill="#956643" transform="translate(285.32421875,15.0546875)"/>
<path d="M0 0 C3.4959375 1.8253125 3.4959375 1.8253125 7.0625 3.6875 C21.46676614 11.00855374 36.18494074 14.71880877 52.1875 16.5625 C53.28505615 16.69180908 54.3826123 16.82111816 55.51342773 16.9543457 C63.33842939 17.85729717 71.13480988 18.54797758 79 19 C79.495 24.94 79.495 24.94 80 31 C89.405 32.485 89.405 32.485 99 34 C97.35 35.65 95.7 37.3 94 39 C92.97526454 40.88289807 92.97526454 40.88289807 92.5 42.875 C92.26925781 43.6484375 92.03851563 44.421875 91.80078125 45.21875 C91.53652344 46.1365625 91.27226562 47.054375 91 48 C85.43020071 66.1772511 78.45919679 80.73005508 61 90 C49.81031855 95.63653104 37.60078356 95.41643721 25.703125 91.96484375 C12.65459694 87.30734891 2.82838919 77.68586507 -3.296875 65.3984375 C-7.84812591 55.20026416 -10.99011314 43.98883796 -13 33 C-8.28741428 31.72201065 -4.95734952 31 0 31 C0 20.77 0 10.54 0 0 Z " fill="#F5D6C4" transform="translate(217,315)"/>
<path d="M0 0 C2.63664741 2.63664741 4.255224 4.75970171 6 8 C6 8.66 6 9.32 6 10 C6.66 10 7.32 10 8 10 C8.66 8.35 9.32 6.7 10 5 C10.33 5 10.66 5 11 5 C11.22042969 6.56234375 11.22042969 6.56234375 11.4453125 8.15625 C15.46919115 34.61488596 28.05475845 57.46095158 49.6015625 73.80859375 C51.90273874 75.49038683 54.22713981 77.13470526 56.578125 78.74609375 C57.09085968 79.09875305 57.60359436 79.45141235 58.13186646 79.8147583 C59.9888693 81.04396315 59.9888693 81.04396315 62.05670166 81.98907471 C67.57798737 84.80270387 67.57798737 84.80270387 68.70172119 87.99085999 C68.92694045 90.44355628 68.90087603 92.77814285 68.78125 95.23828125 C68.76993042 96.11904831 68.75861084 96.99981537 68.74694824 97.90727234 C68.70227979 100.71125994 68.60195033 103.51006814 68.5 106.3125 C68.45985999 108.21672283 68.4233601 110.12102611 68.390625 112.02539062 C68.3025772 116.68557916 68.16460791 121.34191271 68 126 C63.01521755 127.31756515 58.22205709 128.31963491 53.08984375 128.91015625 C45.23759583 129.90811708 37.52837102 131.36326712 29.78149414 132.97680664 C27.54157258 133.44184482 25.29931506 133.89414977 23.05664062 134.34570312 C16.13989553 135.76094161 9.56223219 137.34095424 3 140 C2.01 140 1.02 140 0 140 C0 93.8 0 47.6 0 0 Z " fill="#976946" transform="translate(148,220)"/>
<path d="M0 0 C0.33 0 0.66 0 1 0 C1 45.21 1 90.42 1 137 C-15 133 -15 133 -22.23828125 131.18359375 C-34.69659007 128.0940853 -47.04145741 125.24034749 -59.765625 123.5078125 C-63 123 -63 123 -64 122 C-64.58571693 116.20177546 -64.8281112 110.40794696 -65.00927734 104.58447266 C-65.08578677 102.62783276 -65.19464949 100.67216301 -65.33740234 98.71923828 C-66.46717867 82.93725595 -66.46717867 82.93725595 -62.36898804 78.05822754 C-58.31812399 74.64528955 -53.82460712 72.29625812 -49.05549622 70.04550171 C-32.02838328 61.38487974 -19.40299142 42.26375746 -13.0625 24.6953125 C-10.82714397 16.92087572 -9.42005086 8.95704479 -8 1 C-6.5 2.375 -6.5 2.375 -5 4 C-5 4.66 -5 5.32 -5 6 C-4.34 6 -3.68 6 -3 6 C-2.690625 5.195625 -2.38125 4.39125 -2.0625 3.5625 C-1 1 -1 1 0 0 Z " fill="#956642" transform="translate(360,224)"/>
<path d="M0 0 C0.33 0 0.66 0 1 0 C1 45.21 1 90.42 1 137 C-15 133 -15 133 -19 131 C-20.61643128 127.76713743 -20.17438117 124.22326467 -20.19287109 120.66992188 C-20.20104858 119.8078714 -20.20922607 118.94582092 -20.21765137 118.05764771 C-20.24253119 115.19468888 -20.25903321 112.33177993 -20.2734375 109.46875 C-20.27876118 108.49013504 -20.28408485 107.51152008 -20.28956985 106.50325012 C-20.31632013 101.3176044 -20.33568393 96.13198284 -20.35009766 90.94628906 C-20.36669697 85.6043463 -20.41142973 80.26302631 -20.4624691 74.92131805 C-20.49623625 70.80329737 -20.50768579 66.68542229 -20.51332474 62.567276 C-20.52001734 60.59940363 -20.5351872 58.63154015 -20.55921555 56.6638031 C-20.77850977 37.60896698 -20.77850977 37.60896698 -15 29 C-11.54501321 19.95480166 -9.73337392 10.49416169 -8 1 C-6.5 2.375 -6.5 2.375 -5 4 C-5 4.66 -5 5.32 -5 6 C-4.34 6 -3.68 6 -3 6 C-2.690625 5.195625 -2.38125 4.39125 -2.0625 3.5625 C-1 1 -1 1 0 0 Z " fill="#9A6E4D" transform="translate(360,224)"/>
<path d="M0 0 C10.12425241 -0.4721154 20.10754718 0.30129124 30.1875 1.25 C31.4768042 1.35932861 32.7661084 1.46865723 34.09448242 1.58129883 C35.31498291 1.70400146 36.5354834 1.8267041 37.79296875 1.953125 C39.44075317 2.11022949 39.44075317 2.11022949 41.12182617 2.27050781 C44.56635358 3.14354606 45.89247494 4.16224429 48 7 C48.44116211 9.00683594 48.44116211 9.00683594 48.33984375 11.234375 C48.30358887 12.11287109 48.26733398 12.99136719 48.22998047 13.89648438 C47.80457657 19.63717905 47.33442278 25.36781739 46.77319336 31.09667969 C46.56159078 33.2592924 46.35739306 35.42251094 46.15429688 37.5859375 C45.59677907 43.42484322 45.02726366 49.22074205 44 55 C39.32301427 54.32270657 35.21734991 52.53976804 30.9375 50.625 C30.16325684 50.27993408 29.38901367 49.93486816 28.59130859 49.5793457 C4.10434316 38.42558426 4.10434316 38.42558426 -3 32 C-3.61935692 24.91258618 -2.48321916 17.95733046 -1.5 10.9375 C-1.35691406 9.88111328 -1.21382813 8.82472656 -1.06640625 7.73632812 C-0.71624103 5.15677765 -0.36067163 2.57809875 0 0 Z " fill="#F6D6C4" transform="translate(119,432)"/>
<path d="M0 0 C1.85625 0.0309375 1.85625 0.0309375 3.75 0.0625 C4.25737777 4.39500237 4.75457148 8.72861627 5.25 13.0625 C5.39308594 14.28324219 5.53617187 15.50398438 5.68359375 16.76171875 C6.07307831 20.19289222 6.42366928 23.62479739 6.75 27.0625 C6.84112061 27.89539551 6.93224121 28.72829102 7.02612305 29.58642578 C7.16796875 31.6953125 7.16796875 31.6953125 6.75 35.0625 C4.64453125 37.2421875 4.64453125 37.2421875 1.5625 38.9375 C0.71909058 39.41159302 0.71909058 39.41159302 -0.14135742 39.89526367 C-2.15553978 40.99972958 -4.19502183 42.03590868 -6.25 43.0625 C-7.51118652 43.69454346 -7.51118652 43.69454346 -8.79785156 44.33935547 C-33.89392512 56.78791232 -33.89392512 56.78791232 -39.25 55.0625 C-41.4372459 27.65502911 -41.4372459 27.65502911 -41.5625 17 C-41.57925781 15.70964844 -41.59601563 14.41929687 -41.61328125 13.08984375 C-41.25 10.0625 -41.25 10.0625 -40.14697266 8.47143555 C-37.42420604 6.44915934 -34.85761632 6.11885072 -31.53515625 5.4921875 C-30.88300644 5.36562775 -30.23085663 5.23906799 -29.5589447 5.1086731 C-27.47871259 4.70734564 -25.39588783 4.32207361 -23.3125 3.9375 C-21.23349623 3.54216425 -19.15512425 3.14362196 -17.07676697 2.74490356 C-15.18893684 2.38460853 -13.29969864 2.03171478 -11.41040039 1.67919922 C-9.62569346 1.33094354 -7.84441254 0.95415407 -6.08764648 0.48486328 C-4.0047312 0.0061276 -2.13417831 -0.03556964 0 0 Z " fill="#F6D6C4" transform="translate(388.25,431.9375)"/>
<path d="M0 0 C0.74894531 0.08894531 1.49789062 0.17789062 2.26953125 0.26953125 C3.37361328 0.38361328 3.37361328 0.38361328 4.5 0.5 C7.08203125 1.08203125 7.08203125 1.08203125 10.41796875 2.52734375 C27.86737053 9.93124771 48.25174729 8.18524347 66.08203125 3.08203125 C67.37404561 2.55563173 68.65663532 2.0051483 69.92578125 1.42578125 C73.76099664 -0.20703322 76.07318018 0.18208509 80.08203125 1.08203125 C80.77185014 5.04848986 80.6956365 7.06734549 78.58203125 10.5625 C71.44587265 19.77539226 63.75761248 24.67775559 53.08203125 29.08203125 C52.33566406 29.45070313 51.58929688 29.819375 50.8203125 30.19921875 C41.68354843 33.1448802 29.18309067 32.16555193 20.50390625 28.3515625 C10.83761252 23.28455369 1.626815 17.85232261 -3.91796875 8.08203125 C-4.41796875 4.70703125 -4.41796875 4.70703125 -3.91796875 2.08203125 C-1.91796875 0.08203125 -1.91796875 0.08203125 0 0 Z " fill="#D46A5C" transform="translate(217.91796875,256.91796875)"/>
<path d="M0 0 C1.78842678 3.40971086 3.18609274 6.9308669 4.625 10.5 C12.55852392 29.38628366 26.93640185 43.14279726 43.1875 55.0625 C52.99948265 62.30764443 61.52719098 70.4779436 64 83 C64.08147598 85.17059032 64.10752942 87.34352851 64.09765625 89.515625 C64.09282227 91.39121094 64.09282227 91.39121094 64.08789062 93.3046875 C64.07532227 95.25761719 64.07532227 95.25761719 64.0625 97.25 C64.05798828 98.56742187 64.05347656 99.88484375 64.04882812 101.2421875 C64.03704316 104.49483741 64.02059011 107.74739584 64 111 C63.67 111 63.34 111 63 111 C63.00112793 110.29504395 63.00225586 109.59008789 63.00341797 108.86376953 C62.99118451 105.61658384 62.93336713 102.37167141 62.875 99.125 C62.87757813 98.01640625 62.88015625 96.9078125 62.8828125 95.765625 C62.61641249 84.44362456 57.93138429 77.13523476 49.8828125 69.4140625 C45.56453484 65.79794381 40.95109569 62.64331027 36.3137207 59.45288086 C30.43699832 55.38887881 25.13309851 50.97784412 20 46 C19.36964844 45.43152344 18.73929687 44.86304688 18.08984375 44.27734375 C9.92426495 36.68604742 4.40273151 26.55317191 1 16 C1 14.68 1 13.36 1 12 C0.34 12 -0.32 12 -1 12 C-1.21011719 12.66386719 -1.42023438 13.32773438 -1.63671875 14.01171875 C-3.48761332 18.06883722 -6.07414424 21.31204902 -8.8125 24.8125 C-9.3892749 25.55733643 -9.9660498 26.30217285 -10.56030273 27.06958008 C-22.77896514 42.78023638 -35.4093201 58.18338612 -49.0390625 72.6953125 C-50.78954271 74.75264979 -51.94235862 76.5321701 -53 79 C-53 78.01 -53 77.02 -53 76 C-54.98 75.34 -56.96 74.68 -59 74 C-57.40202532 70.13746693 -54.77829295 67.41810718 -51.9375 64.4375 C-47.52184378 59.71479962 -43.35157459 54.8638365 -39.296875 49.82421875 C-37.27430677 47.33728537 -35.20752397 44.89633224 -33.11694336 42.46655273 C-26.61664329 34.89815549 -20.57269575 27.01475927 -14.55908203 19.05712891 C-12.1818276 15.92046341 -9.77909943 12.80360867 -7.375 9.6875 C-4.89691772 6.4725793 -2.42683426 3.25381282 0 0 Z " fill="#E3C4B3" transform="translate(287,74)"/>
<path d="M0 0 C0.99 0.99 0.99 0.99 2 2 C0.23849609 2.05607422 0.23849609 2.05607422 -1.55859375 2.11328125 C-31.63749125 3.25623527 -59.57135478 11.32549971 -83 31 C-83.86882812 31.72960938 -84.73765625 32.45921875 -85.6328125 33.2109375 C-102.76774275 48.14505102 -112.78903317 65.50189664 -122 86 C-122.33 86 -122.66 86 -123 86 C-123.33176582 79.00468238 -122.348778 73.53300598 -120.0625 66.9375 C-119.74893555 66.02355469 -119.43537109 65.10960938 -119.11230469 64.16796875 C-109.6238092 37.60389146 -90.72031486 17.76957243 -65.25 5.6875 C-45.83669212 -2.88129259 -20.73037951 -5.975661 0 0 Z " fill="#9F7555" transform="translate(280,26)"/>
<path d="M0 0 C0 9.9 0 19.8 0 30 C-8.96958356 30 -17.36801571 29.90526116 -26.1875 28.8125 C-27.2597583 28.68012939 -28.3320166 28.54775879 -29.43676758 28.41137695 C-46.72580342 26.12083371 -63.37130549 21.75246301 -78 12 C-78.33 21.9 -78.66 31.8 -79 42 C-79.33 42 -79.66 42 -80 42 C-80.33 28.47 -80.66 14.94 -81 1 C-80.34 1 -79.68 1 -79 1 C-79 1.66 -79 2.32 -79 3 C-78.12988281 3.2784375 -77.25976562 3.556875 -76.36328125 3.84375 C-72.23116252 5.26431579 -68.28633531 7.01360596 -64.29296875 8.78125 C-56.77221012 11.56473362 -49.61287921 12.36207793 -41.625 12.3125 C-40.23909668 12.30621582 -40.23909668 12.30621582 -38.82519531 12.29980469 C-32.16747712 12.18950763 -26.22229402 11.50605301 -20 9 C-19.24074219 8.69835937 -18.48148437 8.39671875 -17.69921875 8.0859375 C-12.67582312 5.95164506 -7.82444688 3.44092031 -2.96875 0.953125 C-1 0 -1 0 0 0 Z " fill="#E5C6B5" transform="translate(296,304)"/>
<path d="M0 0 C1.96278461 5.88835382 -1.64264805 13.40970822 -4 19 C-6.28999369 23.02687378 -9.00924166 26.4715197 -12 30 C-12.8146875 31.00160156 -13.629375 32.00320312 -14.46875 33.03515625 C-25.87472471 46.93651925 -38.56576802 59.73508342 -51.28857422 72.41894531 C-53.39799657 74.52293737 -55.50192439 76.63232035 -57.60546875 78.7421875 C-58.97363735 80.10969622 -60.34211561 81.4768952 -61.7109375 82.84375 C-62.32568939 83.46052612 -62.94044128 84.07730225 -63.57382202 84.71276855 C-67.32058977 88.4396826 -71.18516713 91.97590212 -75.19497681 95.41859436 C-77.91900246 97.80515069 -80.46360886 100.3546679 -83 102.9375 C-83.48855469 103.43056641 -83.97710937 103.92363281 -84.48046875 104.43164062 C-85.65603525 105.61873229 -86.82838826 106.80900498 -88 108 C-88.33 107.34 -88.66 106.68 -89 106 C-88.15836463 103.98778023 -87.22450794 102.01383614 -86.25 100.0625 C-84.13381604 95.74472555 -82.77505055 92.18148592 -82.125 87.4375 C-80.19288715 79.54899192 -72.41419271 75.83599604 -66.11914062 71.50292969 C-48.940919 59.31984992 -34.53858982 43.05183765 -21.25 26.875 C-20.65018311 26.14579346 -20.05036621 25.41658691 -19.43237305 24.6652832 C-12.79727443 16.57252015 -6.24397756 8.3998786 0 0 Z " fill="#9F7555" transform="translate(252,87)"/>
<path d="M0 0 C7.19438583 2.71390884 15.13175722 5.77681972 20 12 C22.39078694 18.54160391 21.41288214 25.8141791 20.9375 32.625 C20.86215304 34.50624355 20.79373009 36.38777788 20.73242188 38.26953125 C20.5680882 42.8536031 20.31007772 47.42357083 20 52 C11.15379213 54.38272472 11.15379213 54.38272472 6 53 C5.67 52.67 5.34 52.34 5 52 C3.68 52 2.36 52 1 52 C1.00222061 51.37803741 1.00444122 50.75607483 1.00672913 50.11526489 C1.02880126 43.65936862 1.0439147 37.20348301 1.05493164 30.74755859 C1.05996974 28.33609583 1.06680034 25.92463614 1.07543945 23.51318359 C1.08752787 20.05305221 1.09323344 16.5929611 1.09765625 13.1328125 C1.10281754 12.04944611 1.10797882 10.96607971 1.11329651 9.84988403 C1.11337204 8.8489975 1.11344757 7.84811096 1.11352539 6.81689453 C1.115746 5.93309113 1.11796661 5.04928772 1.12025452 4.13870239 C1.13873944 1.94723225 1.13873944 1.94723225 0 0 Z " fill="#946542" transform="translate(196,294)"/>
<path d="M0 0 C0.33 0 0.66 0 1 0 C1 45.21 1 90.42 1 137 C-10 134 -10 134 -12 132 C-9.69 132.33 -7.38 132.66 -5 133 C-5 91.42 -5 49.84 -5 7 C-4.34 7 -3.68 7 -3 7 C-2.87625 6.401875 -2.7525 5.80375 -2.625 5.1875 C-2 3 -2 3 0 0 Z " fill="#986844" transform="translate(360,224)"/>
<path d="M0 0 C3.988989 2.93014217 7.24987173 5.87480759 10 10 C9.625 12.6875 9.625 12.6875 9 15 C6.8125 15.4375 6.8125 15.4375 4 15 C2.7781566 13.34886027 1.56636529 11.68716453 0.453125 9.9609375 C-2.02241742 6.62028617 -5.26458804 3.84171405 -9 2 C-11.19991906 2.25825323 -11.19991906 2.25825323 -13 3 C-13 4.32 -13 5.64 -13 7 C-10.525 7.495 -10.525 7.495 -8 8 C-8.29900197 11.28902165 -8.72466085 13.56404634 -10.5 16.375 C-13.70881969 18.4607328 -16.02150636 18.6857522 -19.8046875 18.5234375 C-22.35283056 17.91587314 -23.33596902 17.19358059 -25.0625 15.25 C-27 12 -27 12 -27 8 C-30.98069267 10.87494471 -33.43571997 13.82117329 -36 18 C-37.65 17.67 -39.3 17.34 -41 17 C-40.32627751 9.66391069 -36.26335423 5.82474137 -31 1 C-21.07812305 -5.64349453 -10.32731394 -5.70240128 0 0 Z " fill="#4B3C35" transform="translate(320,173)"/>
<path d="M0 0 C5.29012124 4.40843437 10.18808428 9.07559794 15 14 C14.67 14.66 14.34 15.32 14 16 C11.69 13.69 9.38 11.38 7 9 C6.67 30.78 6.34 52.56 6 75 C7.32 75.33 8.64 75.66 10 76 C4.92523206 77.26305335 0.27203646 78.27036084 -5 78 C-3.02 77.505 -3.02 77.505 -1 77 C-1.00222061 76.06483551 -1.00444122 75.12967102 -1.00672913 74.16616821 C-1.0269734 65.36653897 -1.04197836 56.56691444 -1.05181217 47.76726723 C-1.05703772 43.24294695 -1.06412944 38.71864542 -1.07543945 34.19433594 C-1.08627995 29.83069041 -1.09227932 25.46706295 -1.09487724 21.103405 C-1.09672939 19.43598521 -1.10034599 17.76856645 -1.10573006 16.10115433 C-1.11295589 13.77135303 -1.11399029 11.44162705 -1.11352539 9.11181641 C-1.11712067 8.41770157 -1.12071594 7.72358673 -1.12442017 7.00843811 C-1.11405216 2.22810432 -1.11405216 2.22810432 0 0 Z " fill="#956643" transform="translate(177,275)"/>
<path d="M0 0 C9 2 9 2 10.87207031 2.50341797 C17.53869628 4.19669837 24.01826174 4.38277573 30.875 4.375 C32.64290894 4.37693359 32.64290894 4.37693359 34.4465332 4.37890625 C44.67996344 4.25664139 54.15254877 2.68675892 64 0 C60.2688774 4.82126516 56.89899143 8.06772566 51.375 10.875 C50.26898438 11.44992187 49.16296875 12.02484375 48.0234375 12.6171875 C39.55444867 16.49060099 28.42772124 16.33743849 19.46484375 14.12890625 C11.95402244 11.17303464 4.53981993 6.80972989 0 0 Z " fill="#FBF5F4" transform="translate(224,266)"/>
<path d="M0 0 C6.76662988 2.34848169 12.18210778 6.9597526 16 13 C16.78483142 15.49078235 16.94499993 17.35999645 17 20 C15.68 20.33 14.36 20.66 13 21 C9.39363961 16.53174216 6.41963409 12.67853635 5 7 C3.68 7.33 2.36 7.66 1 8 C0.67 9.32 0.34 10.64 0 12 C0.99 12.33 1.98 12.66 3 13 C2.68762196 15.88949684 2.35661121 17.58633099 0.4375 19.8125 C-3.05495808 21.51395393 -6.24453967 21.77340173 -10 21 C-13 19 -13 19 -15 16 C-15.30730363 13.27593562 -15.13547846 10.75472872 -15 8 C-15.66 7.34 -16.32 6.68 -17 6 C-12.07930364 -0.38360609 -7.92313808 -1.44357592 0 0 Z " fill="#4A3C35" transform="translate(216,170)"/>
<path d="M0 0 C0.74243311 13.38441913 -1.9357457 24.59257696 -7 37 C-10.79765306 35.36445614 -12.47397733 33.49696192 -14.234375 29.67578125 C-16.27521249 22.54326248 -16.41020055 13.94315677 -13.125 7.1875 C-9.77547375 2.16321062 -6.25346042 0 0 0 Z " fill="#F3D4C2" transform="translate(154,171)"/>
<path d="M0 0 C13.11063393 -0.40800728 26.6490016 2.53918403 37.578125 10.1953125 C38.27734375 12.3203125 38.27734375 12.3203125 38.578125 14.1953125 C39.238125 14.5253125 39.898125 14.8553125 40.578125 15.1953125 C40.578125 16.1853125 40.578125 17.1753125 40.578125 18.1953125 C36.82162417 17.5883375 33.8045948 16.48443367 30.390625 14.8203125 C25.22923063 12.40701189 20.08055124 10.64693297 14.578125 9.1953125 C13.68939697 8.93077271 13.68939697 8.93077271 12.78271484 8.66088867 C10.16314916 8.10767585 7.79024151 8.11748569 5.11328125 8.16796875 C4.06591797 8.18021484 3.01855469 8.19246094 1.93945312 8.20507812 C-0.25592639 8.240173 -2.45124633 8.27922174 -4.64648438 8.32226562 C-5.69513672 8.33322266 -6.74378906 8.34417969 -7.82421875 8.35546875 C-8.77804443 8.37230713 -9.73187012 8.38914551 -10.71459961 8.40649414 C-13.63223858 8.17890304 -15.77625608 7.41343271 -18.421875 6.1953125 C-18.421875 5.5353125 -18.421875 4.8753125 -18.421875 4.1953125 C-12.39100069 0.63864304 -6.79092678 0.38760998 0 0 Z " fill="#976844" transform="translate(298.421875,145.8046875)"/>
<path d="M0 0 C2.99220268 1.36370299 5.29026529 2.94908083 7.75 5.125 C8.67039062 5.93324219 8.67039062 5.93324219 9.609375 6.7578125 C10.06828125 7.16773438 10.5271875 7.57765625 11 8 C5.20033956 18.69609508 5.20033956 18.69609508 2 23 C1.34 23 0.68 23 0 23 C-0.66 21.68 -1.32 20.36 -2 19 C-2.66 20.32 -3.32 21.64 -4 23 C-4.03738281 22.39671875 -4.07476562 21.7934375 -4.11328125 21.171875 C-4.56253341 15.00632228 -4.56253341 15.00632228 -8 10 C-6.34908222 5.70761377 -3.26245434 3.1206085 0 0 Z " fill="#DFC370" transform="translate(355,207)"/>
<path d="M0 0 C5.57916295 2.23166518 6.55301827 3.46968116 10 8 C8.125 12.875 8.125 12.875 7 14 C6.76572222 16.01594582 6.58663876 18.038474 6.4375 20.0625 C6.35371094 21.16722656 6.26992187 22.27195313 6.18359375 23.41015625 C6.12300781 24.26480469 6.06242188 25.11945313 6 26 C5.67 26 5.34 26 5 26 C4.67 23.69 4.34 21.38 4 19 C3.34 20.32 2.68 21.64 2 23 C1.34 23 0.68 23 0 23 C-1.4375 20.98828125 -1.4375 20.98828125 -3 18.3125 C-3.515625 17.44238281 -4.03125 16.57226562 -4.5625 15.67578125 C-6 13 -6 13 -8 8 C-5.36 5.36 -2.72 2.72 0 0 Z " fill="#DEC16F" transform="translate(154,207)"/>
<path d="M0 0 C0.66 0 1.32 0 2 0 C2 46.53 2 93.06 2 141 C1.67 141 1.34 141 1 141 C0.67 94.47 0.34 47.94 0 0 Z " fill="#817F7E" transform="translate(145,219)"/>
<path d="M0 0 C7.16041824 4.6332118 12.1015545 13.79577507 14 22 C14.35043207 26.84088593 14.28361628 31.64982478 14.1875 36.5 C14.17396484 37.799375 14.16042969 39.09875 14.14648438 40.4375 C14.11132334 43.62543412 14.06210664 46.81249599 14 50 C13.67 50 13.34 50 13 50 C13.00112793 49.29504395 13.00225586 48.59008789 13.00341797 47.86376953 C12.99118451 44.61658384 12.93336713 41.37167141 12.875 38.125 C12.87757813 37.01640625 12.88015625 35.9078125 12.8828125 34.765625 C12.67239676 25.82295596 10.38718634 19.36709559 3.97412109 12.98339844 C3.36391113 12.43200195 2.75370117 11.88060547 2.125 11.3125 C-0.74026926 8.65549921 -0.96395905 8.27931739 -1.5 4.125 C-1 1 -1 1 0 0 Z " fill="#DABCAB" transform="translate(337,135)"/>
<path d="M0 0 C0.33 0 0.66 0 1 0 C1.00423194 0.69906401 1.00846388 1.39812801 1.01282406 2.11837578 C1.11602446 19.10994617 1.22464616 36.10147318 1.33933926 53.09296989 C1.39467201 61.30984945 1.44815408 69.52673335 1.49731445 77.74365234 C1.54015566 84.90357572 1.58643348 92.06346712 1.63687855 99.22334111 C1.66348001 103.016182 1.68833309 106.80901654 1.70907402 110.60189438 C1.72863473 114.16903075 1.75277678 117.73610626 1.78049088 121.30318832 C1.79434669 123.24224549 1.80329271 125.18133578 1.81211853 127.12042236 C1.82190735 128.26749664 1.83169617 129.41457092 1.84178162 130.59640503 C1.84823417 131.59747221 1.85468672 132.59853939 1.8613348 133.62994194 C1.84481129 136.0181302 1.84481129 136.0181302 3 138 C2.01 137.67 1.02 137.34 0 137 C0 91.79 0 46.58 0 0 Z " fill="#AC5A59" transform="translate(362,223)"/>
<path d="M0 0 C-0.71542969 0.70382813 -1.43085938 1.40765625 -2.16796875 2.1328125 C-4.05881063 4.0176686 -5.83176757 5.93247486 -7.61328125 7.9296875 C-14.79246574 15.76341413 -14.79246574 15.76341413 -18.4921875 16.48828125 C-20.6875 16.1875 -20.6875 16.1875 -24 15 C-22.6250654 13.35007848 -21.24264017 11.70596039 -19.828125 10.08984375 C-18.58335993 8.66687513 -17.36530625 7.22019464 -16.171875 5.75390625 C-11.13591476 0.0116833 -7.54645022 -1.11341069 0 0 Z " fill="#E3C5B3" transform="translate(231,154)"/>
<path d="M0 0 C-0.33 2.31 -0.66 4.62 -1 7 C-1.66 6.34 -2.32 5.68 -3 5 C-3.87140625 5.70125 -4.7428125 6.4025 -5.640625 7.125 C-25.89538661 23.3087834 -25.89538661 23.3087834 -35 26 C-31.46943822 22.3849128 -27.80769471 19.00193719 -23.9375 15.75 C-23.42123047 15.30398437 -22.90496094 14.85796875 -22.37304688 14.3984375 C-19.57543574 12.04630585 -17.49479913 10.85863599 -14 10 C-12.40470612 8.25948653 -12.40470612 8.25948653 -11.0625 6.125 C-5.42280479 -1.8076016 -5.42280479 -1.8076016 0 0 Z " fill="#DEC0AF" transform="translate(202,178)"/>
<path d="M0 0 C1.71986515 3.43973031 0.99404059 7.38871118 0.87890625 11.1640625 C0.85529526 12.07127045 0.83168427 12.97847839 0.80735779 13.91317749 C0.73064479 16.81727451 0.64665335 19.72110997 0.5625 22.625 C0.50928696 24.59113294 0.45654651 26.55727873 0.40429688 28.5234375 C0.27501931 33.34912468 0.13921274 38.17458962 0 43 C-1.485 43.495 -1.485 43.495 -3 44 C-3.07401579 38.05520371 -3.12853813 32.11067407 -3.16479492 26.16552734 C-3.17990526 24.14204234 -3.20039437 22.1185902 -3.22631836 20.09521484 C-3.26260328 17.19099835 -3.27970355 14.28721385 -3.29296875 11.3828125 C-3.30845261 10.47443634 -3.32393646 9.56606018 -3.33988953 8.63015747 C-3.34011612 7.78943695 -3.34034271 6.94871643 -3.34057617 6.08251953 C-3.34723801 5.34083527 -3.35389984 4.599151 -3.36076355 3.83499146 C-3.24171158 3.22944427 -3.12265961 2.62389709 -3 2 C-2.01 1.34 -1.02 0.68 0 0 Z " fill="#9C6E4B" transform="translate(299,302)"/>
<path d="M0 0 C0.33 0 0.66 0 1 0 C1.84798166 4.56970358 2.27815997 9.0958939 2.52734375 13.73046875 C2.56866928 14.46895554 2.60999481 15.20744232 2.65257263 15.9683075 C3.10522906 24.41194764 3.35138532 32.85990522 3.5625 41.3125 C3.58367889 42.12462952 3.60485779 42.93675903 3.62667847 43.77349854 C4.01613097 58.85137436 4.12166711 73.91702217 4 89 C3.67 89 3.34 89 3 89 C2.03067565 77.98099365 1.75316089 66.98906532 1.5541687 55.93463135 C1.46223871 50.84818365 1.35841205 45.761984 1.25390625 40.67578125 C1.23344742 39.67391785 1.21298859 38.67205444 1.19190979 37.63983154 C0.92836059 25.08853387 0.49295856 12.54428956 0 0 Z " fill="#875732" transform="translate(364,86)"/>
<path d="M0 0 C0.12375 0.598125 0.2475 1.19625 0.375 1.8125 C0.95475985 4.26231348 0.95475985 4.26231348 3 7 C3.4375 10.375 3.4375 10.375 3 14 C0.6875 16.9375 0.6875 16.9375 -2 19 C-2.99 19 -3.98 19 -5 19 C-5.13536629 16.58145554 -5.23420279 14.17050217 -5.3125 11.75 C-5.35439453 11.06808594 -5.39628906 10.38617188 -5.43945312 9.68359375 C-5.48828125 7.671875 -5.48828125 7.671875 -5 4 C-2.48046875 1.515625 -2.48046875 1.515625 0 0 Z " fill="#E4C6B5" transform="translate(357,181)"/>
<path d="M0 0 C0 0.66 0 1.32 0 2 C2.65918166 2.88639389 4.48064641 3.17989025 7.23046875 3.31640625 C8.43413086 3.37924805 8.43413086 3.37924805 9.66210938 3.44335938 C10.49548828 3.48267578 11.32886719 3.52199219 12.1875 3.5625 C13.03248047 3.60568359 13.87746094 3.64886719 14.74804688 3.69335938 C16.83184433 3.79931518 18.91590103 3.9001502 21 4 C21 4.33 21 4.66 21 5 C16.77159716 5.22638576 12.54236342 5.42794972 8.3125 5.625 C7.11431641 5.68945312 5.91613281 5.75390625 4.68164062 5.8203125 C2.94624023 5.89765625 2.94624023 5.89765625 1.17578125 5.9765625 C0.11270752 6.02893066 -0.95036621 6.08129883 -2.0456543 6.13525391 C-5.12920727 5.99408472 -7.22759138 5.31336415 -10 4 C-10 3.34 -10 2.68 -10 2 C-6.49223216 0.39644899 -3.85645121 -0.22036864 0 0 Z " fill="#93623B" transform="translate(290,148)"/>
<path d="M0 0 C-3.48868709 1.17660909 -5.92348503 0.78250893 -9.5 0.0625 C-23.06699433 -2.16059896 -36.44100422 -1.64116194 -49.8125 1.44140625 C-52.73791514 1.95407091 -54.26842989 2.03116772 -57 1 C-55.14703165 0.51622009 -53.29255559 0.03821364 -51.4375 -0.4375 C-49.88869141 -0.83775391 -49.88869141 -0.83775391 -48.30859375 -1.24609375 C-32.45661299 -4.85817437 -15.70302137 -3.77952377 0 0 Z " fill="#876C4E" transform="translate(282,12)"/>
<path d="M0 0 C1.485 0.99 1.485 0.99 3 2 C3 2.66 3 3.32 3 4 C3.61488281 4.19335938 4.22976562 4.38671875 4.86328125 4.5859375 C6.07564453 4.97652344 6.07564453 4.97652344 7.3125 5.375 C8.11300781 5.63023437 8.91351563 5.88546875 9.73828125 6.1484375 C12 7 12 7 15 9 C17.28648848 9.24107326 17.28648848 9.24107326 19.6875 9.125 C20.49574219 9.10695312 21.30398438 9.08890625 22.13671875 9.0703125 C22.75160156 9.04710937 23.36648438 9.02390625 24 9 C21.88400274 11.37343313 21.35466273 11.95472391 18.0625 12.375 C15 12 15 12 13.1875 10.5625 C10.21700839 8.44072028 7.60672028 8.50501955 4.0234375 8.30859375 C2 8 2 8 0 6 C-0.125 2.875 -0.125 2.875 0 0 Z " fill="#473A34" transform="translate(238,227)"/>
<path d="M0 0 C4.75 0.875 4.75 0.875 7 2 C7 2.99 7 3.98 7 5 C-1.42857143 6.28571429 -1.42857143 6.28571429 -6 5 C-5.38125 4.9175 -4.7625 4.835 -4.125 4.75 C-1.81562433 4.18741541 -1.81562433 4.18741541 -0.75 1.9375 C-0.5025 1.298125 -0.255 0.65875 0 0 Z " fill="#8D603E" transform="translate(227,148)"/>
<path d="M0 0 C0.66 0 1.32 0 2 0 C2.36597111 5.48956661 2.36597111 5.48956661 0.8125 7.65625 C-1.55274362 9.40979269 -3.26954861 9.49802264 -6.1875 9.6875 C-7.08855469 9.75324219 -7.98960937 9.81898438 -8.91796875 9.88671875 C-9.94857422 9.94279297 -9.94857422 9.94279297 -11 10 C-9 7 -9 7 -5.5 5.5625 C-1.95246353 4.35602674 -1.95246353 4.35602674 -0.5625 1.8125 C-0.376875 1.214375 -0.19125 0.61625 0 0 Z " fill="#4B3E37" transform="translate(273,226)"/>
<path d="M0 0 C0.33 0 0.66 0 1 0 C1.57462915 4.30436972 2.14411877 8.60937981 2.70898438 12.91503906 C2.90160442 14.37778793 3.0955948 15.84035705 3.29101562 17.30273438 C3.5726736 19.41229511 3.84929557 21.52246643 4.125 23.6328125 C4.29257812 24.90012207 4.46015625 26.16743164 4.6328125 27.47314453 C4.96700388 30.68307056 5.06941863 33.77637247 5 37 C4.67 37 4.34 37 4 37 C3.42537085 32.69563028 2.85588123 28.39062019 2.29101562 24.08496094 C2.09839558 22.62221207 1.9044052 21.15964295 1.70898438 19.69726562 C1.4273264 17.58770489 1.15070443 15.47753357 0.875 13.3671875 C0.70742188 12.09987793 0.53984375 10.83256836 0.3671875 9.52685547 C0.03299612 6.31692944 -0.06941863 3.22362753 0 0 Z " fill="#FFFFFF" transform="translate(391,394)"/>
<path d="M0 0 C2.0625 0.4375 2.0625 0.4375 4 1 C5.125 4.75 5.125 4.75 4 7 C1.03 6.505 1.03 6.505 -2 6 C-1.125 1.125 -1.125 1.125 0 0 Z " fill="#DFDEDD" transform="translate(218,176)"/>
<path d="M0 0 C0.33 0 0.66 0 1 0 C1 12.87 1 25.74 1 39 C0.67 39 0.34 39 0 39 C0 26.13 0 13.26 0 0 Z " fill="#AC7224" transform="translate(145,101)"/>
<path d="M0 0 C-2.54093855 0.64881448 -5.08268273 1.29412899 -7.625 1.9375 C-8.33785156 2.11990234 -9.05070312 2.30230469 -9.78515625 2.49023438 C-15.66332485 3.97325856 -21.27868494 5.14488264 -27.375 5.0625 C-28.68597656 5.04896484 -28.68597656 5.04896484 -30.0234375 5.03515625 C-31.00183594 5.01775391 -31.00183594 5.01775391 -32 5 C-32 4.67 -32 4.34 -32 4 C-31.15405273 3.87939209 -31.15405273 3.87939209 -30.29101562 3.75634766 C-27.6933762 3.38350875 -25.09670443 3.00429391 -22.5 2.625 C-21.1696875 2.43550781 -21.1696875 2.43550781 -19.8125 2.2421875 C-15.66375315 1.63207767 -11.63853702 0.95219366 -7.59375 -0.1640625 C-4.18963086 -0.95589021 -3.14765959 -0.97909873 0 0 Z " fill="#FFFFFF" transform="translate(319,502)"/>
<path d="M0 0 C0.66 0.33 1.32 0.66 2 1 C2.625 3.0625 2.625 3.0625 3 5 C-3.75 9 -3.75 9 -6 9 C-4.68775452 5.06326356 -3.08089673 2.77280706 0 0 Z " fill="#8D6D54" transform="translate(144,213)"/>
<path d="M0 0 C2.10963895 6.89994696 0.17972395 14.31551321 -2 21 C-2.33 21 -2.66 21 -3 21 C-3.43230491 13.65081658 -1.81774185 7.09784913 0 0 Z " fill="#916F55" transform="translate(150,89)"/>
<path d="M0 0 C7.07664968 0.64534275 14.09498034 1.53070638 21.125 2.5625 C22.08148438 2.70107422 23.03796875 2.83964844 24.0234375 2.98242188 C26.34924935 3.31966459 28.67475384 3.6588826 31 4 C31 4.33 31 4.66 31 5 C23.69515113 5.28591961 17.01871659 4.48492985 9.875 3 C8.91851562 2.80921875 7.96203125 2.6184375 6.9765625 2.421875 C4.64918508 1.95639952 2.32392556 1.48236048 0 1 C0 0.67 0 0.34 0 0 Z " fill="#FFFFFF" transform="translate(207,502)"/>
<path d="M0 0 C1.41623216 -0.05447047 2.83308191 -0.09300508 4.25 -0.125 C5.03890625 -0.14820313 5.8278125 -0.17140625 6.640625 -0.1953125 C9.20731941 0.0171622 10.7916067 0.71345895 13 2 C12.67 2.99 12.34 3.98 12 5 C9.03 4.505 9.03 4.505 6 4 C6 3.67 6 3.34 6 3 C3.69 2.67 1.38 2.34 -1 2 C-0.67 1.34 -0.34 0.68 0 0 Z " fill="#574841" transform="translate(301,169)"/>
<path d="M0 0 C2.4375 0.8125 2.4375 0.8125 5 2 C5.33 2.99 5.66 3.98 6 5 C4.02 5.33 2.04 5.66 0 6 C-0.38218767 4.34385343 -0.71395102 2.67542976 -1 1 C-0.67 0.67 -0.34 0.34 0 0 Z " fill="#ECEBEA" transform="translate(307,175)"/>
<path d="M0 0 C3.20982372 3.01612746 5.00453275 6.08033219 7 10 C6.67 10.66 6.34 11.32 6 12 C3.32098068 9.68118495 2.33795597 7.68185532 1.3125 4.3125 C1.06113281 3.50425781 0.80976563 2.69601563 0.55078125 1.86328125 C0.36902344 1.24839844 0.18726563 0.63351563 0 0 Z " fill="#8D7156" transform="translate(348,50)"/>
<path d="M0 0 C7.59 0 15.18 0 23 0 C23 0.33 23 0.66 23 1 C15.41 1 7.82 1 0 1 C0 0.67 0 0.34 0 0 Z " fill="#FFFFFF" transform="translate(252,508)"/>
<path d="M0 0 C1.9375 1.4375 1.9375 1.4375 2.6875 4.5625 C2.77 5.51125 2.8525 6.46 2.9375 7.4375 C1.9475 7.4375 0.9575 7.4375 -0.0625 7.4375 C-0.495625 5.9834375 -0.495625 5.9834375 -0.9375 4.5 C-1.70464682 1.33085797 -1.70464682 1.33085797 -4.0625 0.4375 C-2.0625 -0.5625 -2.0625 -0.5625 0 0 Z " fill="#574941" transform="translate(223.0625,173.5625)"/>
<path d="M0 0 C0 0.66 0 1.32 0 2 C-0.94875 2.45375 -1.8975 2.9075 -2.875 3.375 C-6.00313679 4.80238254 -6.00313679 4.80238254 -8 7 C-8 5.35 -8 3.7 -8 2 C-2.25 0 -2.25 0 0 0 Z " fill="#8E7256" transform="translate(140,154)"/>
<path d="M0 0 C0.33 0 0.66 0 1 0 C1.20190089 6.35987804 0.6277833 11.85221129 -1 18 C-2.25985286 14.22044143 -1.64024579 11.15576548 -1.0625 7.3125 C-0.96259766 6.61060547 -0.86269531 5.90871094 -0.75976562 5.18554688 C-0.51270675 3.45613473 -0.25717148 1.7279373 0 0 Z " fill="#FFFFFF" transform="translate(117,413)"/>
<path d="M0 0 C2.46062979 3.69094468 2.26816777 5.67044195 2.25 10.0625 C2.25515625 11.31160156 2.2603125 12.56070313 2.265625 13.84765625 C2 17 2 17 0 19 C0 12.73 0 6.46 0 0 Z " fill="#FFBDBD" transform="translate(372,182)"/>
<path d="M0 0 C2.18975773 3.28463659 2.99806563 6.20696275 4 10 C3.01 9.67 2.02 9.34 1 9 C0.67 6.03 0.34 3.06 0 0 Z " fill="#936C51" transform="translate(356,65)"/>
<path d="M0 0 C0.66 0.33 1.32 0.66 2 1 C-0.97 3.97 -3.94 6.94 -7 10 C-7 7 -7 7 -5.46875 5.17578125 C-4.8190625 4.56089844 -4.169375 3.94601563 -3.5 3.3125 C-2.8503125 2.68988281 -2.200625 2.06726562 -1.53125 1.42578125 C-0.77328125 0.72001953 -0.77328125 0.72001953 0 0 Z " fill="#A25928" transform="translate(181,37)"/>
<path d="M0 0 C6.27 0 12.54 0 19 0 C19 0.33 19 0.66 19 1 C12.73 1 6.46 1 0 1 C0 0.67 0 0.34 0 0 Z " fill="#91724A" transform="translate(289,15)"/>
<path d="M0 0 C3.26737303 3.26737303 3.95672896 6.83168198 4.125 11.375 C4.08375 12.24125 4.0425 13.1075 4 14 C3.67 14 3.34 14 3 14 C2.49528803 12.23050388 1.99639315 10.45934777 1.5 8.6875 C1.2215625 7.70136719 0.943125 6.71523437 0.65625 5.69921875 C0 3 0 3 0 0 Z " fill="#955725" transform="translate(359,67)"/>
<path d="M0 0 C0.33 0 0.66 0 1 0 C1 4.95 1 9.9 1 15 C0.67 15 0.34 15 0 15 C0 10.05 0 5.1 0 0 Z " fill="#FFDBC1" transform="translate(137,183)"/>
<path d="M0 0 C4.29 0 8.58 0 13 0 C13 0.33 13 0.66 13 1 C8.71 1 4.42 1 0 1 C0 0.67 0 0.34 0 0 Z " fill="#FFFFFF" transform="translate(239,507)"/>
<path d="M0 0 C0.66 0.33 1.32 0.66 2 1 C-1.465 3.97 -1.465 3.97 -5 7 C-3.38262276 3.76524552 -2.52370777 2.29427979 0 0 Z " fill="#FFFFFF" transform="translate(137,365)"/>
<path d="M0 0 C1.31223496 3.93670488 0.24296256 6.12488144 -1 10 C-1.33 10 -1.66 10 -2 10 C-1.125 2.25 -1.125 2.25 0 0 Z " fill="#FFFFFF" transform="translate(122,386)"/>
<path d="M0 0 C3.63 0 7.26 0 11 0 C11 0.33 11 0.66 11 1 C7.37 1 3.74 1 0 1 C0 0.67 0 0.34 0 0 Z " fill="#FFFFFF" transform="translate(275,507)"/>
<path d="M0 0 C1.25541557 3.76624671 0.37061958 5.37188934 -1 9 C-2.0326802 6.21176345 -2.04509293 5.1322726 -1.0625 2.25 C-0.711875 1.5075 -0.36125 0.765 0 0 Z " fill="#A86447" transform="translate(149,86)"/>
<path d="M0 0 C4.75 0.75 4.75 0.75 7 3 C2.25 2.25 2.25 2.25 0 0 Z " fill="#F2EEE0" transform="translate(160,488)"/>
<path d="M0 0 C0.33 0 0.66 0 1 0 C1 2.97 1 5.94 1 9 C0.67 9 0.34 9 0 9 C0 6.03 0 3.06 0 0 Z " fill="#F7D2CB" transform="translate(396,458)"/>
<path d="M0 0 C0.33 0 0.66 0 1 0 C1 2.97 1 5.94 1 9 C0.67 9 0.34 9 0 9 C0 6.03 0 3.06 0 0 Z " fill="#FFFFFF" transform="translate(119,396)"/>
<path d="M0 0 C2.31 0.33 4.62 0.66 7 1 C5.1875 1.625 5.1875 1.625 3 2 C2.01 1.34 1.02 0.68 0 0 Z " fill="#FFF9F9" transform="translate(186,497)"/>
<path d="M0 0 C0.66 0.33 1.32 0.66 2 1 C1.01 1.66 0.02 2.32 -1 3 C-1.99 2.67 -2.98 2.34 -4 2 C-2.125 0.9375 -2.125 0.9375 0 0 Z " fill="#F7CBBB" transform="translate(378,477)"/>
<path d="M0 0 C1.98 0.66 3.96 1.32 6 2 C5.01 2.33 4.02 2.66 3 3 C2.01 2.01 1.02 1.02 0 0 Z " fill="#FFDBCB" transform="translate(136,477)"/>
<path d="M0 0 C0.99 0.33 1.98 0.66 3 1 C1.02 1.66 -0.96 2.32 -3 3 C-2.01 2.01 -1.02 1.02 0 0 Z " fill="#7F3828" transform="translate(202,22)"/>
<path d="M0 0 C2.31 0.33 4.62 0.66 7 1 C4 2 4 2 1.8125 1.0625 C1.214375 0.711875 0.61625 0.36125 0 0 Z " fill="#825C33" transform="translate(308,16)"/>
<path d="M0 0 C2.97 0.495 2.97 0.495 6 1 C4.125 1.625 4.125 1.625 2 2 C1.34 1.34 0.68 0.68 0 0 Z " fill="#FFDADA" transform="translate(167,491)"/>
<path d="M0 0 C0.33 0 0.66 0 1 0 C1 2.31 1 4.62 1 7 C0.67 7 0.34 7 0 7 C0 4.69 0 2.38 0 0 Z " fill="#FFFFFF" transform="translate(118,406)"/>
<path d="M0 0 C0.66 0.66 1.32 1.32 2 2 C1.625 4.125 1.625 4.125 1 6 C0.67 4.02 0.34 2.04 0 0 Z " fill="#FFFFFF" transform="translate(388,385)"/>
<path d="M0 0 C0.33 0.66 0.66 1.32 1 2 C0.01 2.99 -0.98 3.98 -2 5 C-1.34 3.35 -0.68 1.7 0 0 Z " fill="#583027" transform="translate(141,212)"/>
<path d="M0 0 C0.33 0 0.66 0 1 0 C1 2.31 1 4.62 1 7 C0.67 7 0.34 7 0 7 C0 4.69 0 2.38 0 0 Z " fill="#632416" transform="translate(144,140)"/>
<path d="M0 0 C0.33 0.66 0.66 1.32 1 2 C0.01 2.99 -0.98 3.98 -2 5 C-1.34 3.35 -0.68 1.7 0 0 Z " fill="#8C4A34" transform="translate(157,68)"/>
<path d="M0 0 C0.99 0.33 1.98 0.66 3 1 C1.35 1.33 -0.3 1.66 -2 2 C-1.34 1.34 -0.68 0.68 0 0 Z " fill="#FFFFFF" transform="translate(332,496)"/>
<path d="M0 0 C0.99 0.33 1.98 0.66 3 1 C1.35 1.33 -0.3 1.66 -2 2 C-1.34 1.34 -0.68 0.68 0 0 Z " fill="#FFFFFF" transform="translate(346,491)"/>
<path d="M0 0 C0.99 0.33 1.98 0.66 3 1 C1.35 1.33 -0.3 1.66 -2 2 C-1.34 1.34 -0.68 0.68 0 0 Z " fill="#FFD6C3" transform="translate(353,488)"/>
<path d="M0 0 C0.99 0.33 1.98 0.66 3 1 C1.35 1.33 -0.3 1.66 -2 2 C-1.34 1.34 -0.68 0.68 0 0 Z " fill="#FFF6A8" transform="translate(363,484)"/>
<path d="M0 0 C1.485 0.99 1.485 0.99 3 2 C2.67 2.66 2.34 3.32 2 4 C1.34 2.68 0.68 1.36 0 0 Z " fill="#7F553F" transform="translate(133,166)"/>
<path d="M0 0 C0.33 0 0.66 0 1 0 C1 1.98 1 3.96 1 6 C0.67 6 0.34 6 0 6 C0 4.02 0 2.04 0 0 Z " fill="#959540" transform="translate(146,95)"/>
<path d="M0 0 C0 0.99 0 1.98 0 3 C-0.99 3.495 -0.99 3.495 -2 4 C-1.34 2.68 -0.68 1.36 0 0 Z " fill="#C47032" transform="translate(169,50)"/>
<path d="M0 0 C1.98 0.99 1.98 0.99 4 2 C3.01 2 2.02 2 1 2 C0.67 1.34 0.34 0.68 0 0 Z " fill="#8B4936" transform="translate(327,24)"/>
<path d="M0 0 C2.475 0.495 2.475 0.495 5 1 C4.01 1.33 3.02 1.66 2 2 C1.34 1.34 0.68 0.68 0 0 Z " fill="#A0614C" transform="translate(315,18)"/>
<path d="M0 0 C1.65 0 3.3 0 5 0 C5 0.33 5 0.66 5 1 C3.35 1 1.7 1 0 1 C0 0.67 0 0.34 0 0 Z " fill="#FFFFFF" transform="translate(198,500)"/>
<path d="M0 0 C1.65 0 3.3 0 5 0 C5 0.33 5 0.66 5 1 C3.35 1 1.7 1 0 1 C0 0.67 0 0.34 0 0 Z " fill="#FFFFFF" transform="translate(193,499)"/>
<path d="M0 0 C0.66 0.33 1.32 0.66 2 1 C0.68 1.33 -0.64 1.66 -2 2 C-1.34 1.34 -0.68 0.68 0 0 Z " fill="#FFC7C7" transform="translate(389,471)"/>
<path d="M0 0 C1.98 0.99 1.98 0.99 4 2 C2.68 1.67 1.36 1.34 0 1 C0 0.67 0 0.34 0 0 Z " fill="#FFE1E1" transform="translate(125,471)"/>
<path d="M0 0 C0.33 0.66 0.66 1.32 1 2 C0.34 2.66 -0.32 3.32 -1 4 C-0.67 2.68 -0.34 1.36 0 0 Z " fill="#FFE5A1" transform="translate(140,176)"/>
<path d="M0 0 C0.33 0 0.66 0 1 0 C1 1.65 1 3.3 1 5 C0.67 5 0.34 5 0 5 C0 3.35 0 1.7 0 0 Z " fill="#A4816E" transform="translate(130,156)"/>
<path d="M0 0 C0.33 0 0.66 0 1 0 C1 1.65 1 3.3 1 5 C0.67 5 0.34 5 0 5 C0 3.35 0 1.7 0 0 Z " fill="#6B3F3F" transform="translate(363,81)"/>
<path d="M0 0 C0.99 0.33 1.98 0.66 3 1 C1.68 1.33 0.36 1.66 -1 2 C-0.67 1.34 -0.34 0.68 0 0 Z " fill="#7C5829" transform="translate(210,18)"/>
<path d="M0 0 C4 1 4 1 4 1 Z " fill="#FFDFDF" transform="translate(203,501)"/>
<path d="M0 0 C4 1 4 1 4 1 Z " fill="#FFFFFF" transform="translate(319,500)"/>
<path d="M0 0 C4 1 4 1 4 1 Z " fill="#FFFFFF" transform="translate(323,499)"/>
<path d="M0 0 C4 1 4 1 4 1 Z " fill="#FFFFEF" transform="translate(173,493)"/>
<path d="M0 0 C0.99 0.33 1.98 0.66 3 1 C2.01 1 1.02 1 0 1 C0 0.67 0 0.34 0 0 Z " fill="#FFE999" transform="translate(120,468)"/>
<path d="M0 0 C0.99 0.495 0.99 0.495 2 1 C1.67 1.66 1.34 2.32 1 3 C0.67 2.01 0.34 1.02 0 0 Z " fill="#FFFFFF" transform="translate(385,380)"/>
<path d="M0 0 C0.99 0.495 0.99 0.495 2 1 C1.67 1.66 1.34 2.32 1 3 C0.67 2.01 0.34 1.02 0 0 Z " fill="#FFFFFF" transform="translate(383,377)"/>
<path d="M0 0 C0.99 0.495 0.99 0.495 2 1 C1.67 1.66 1.34 2.32 1 3 C0.67 2.01 0.34 1.02 0 0 Z " fill="#FFFFFF" transform="translate(381,374)"/>
<path d="M0 0 C0 3 0 3 0 3 Z " fill="#FFFFFF" transform="translate(129,374)"/>
<path d="M0 0 C0.99 0.33 1.98 0.66 3 1 C2.01 1 1.02 1 0 1 C0 0.67 0 0.34 0 0 Z " fill="#FFFFFF" transform="translate(370,364)"/>
<path d="M0 0 C0.66 0.33 1.32 0.66 2 1 C1.01 1 0.02 1 -1 1 C-0.67 0.67 -0.34 0.34 0 0 Z " fill="#AC8226" transform="translate(140,222)"/>
<path d="M0 0 C0 3 0 3 0 3 Z " fill="#F7C251" transform="translate(365,218)"/>
<path d="M0 0 C0 3 0 3 0 3 Z " fill="#DFC259" transform="translate(367,215)"/>
<path d="M0 0 C0.66 0.66 1.32 1.32 2 2 C1.01 2.495 1.01 2.495 0 3 C0 2.01 0 1.02 0 0 Z " fill="#A79775" transform="translate(143,207)"/>
<path d="M0 0 C4 1 4 1 4 1 Z " fill="#8F5D4C" transform="translate(133,153)"/>
<path d="M0 0 C0 3 0 3 0 3 Z " fill="#C18725" transform="translate(143,147)"/>
<path d="M0 0 C0 3 0 3 0 3 Z " fill="#664949" transform="translate(161,61)"/>
<path d="M0 0 C0 3 0 3 0 3 Z " fill="#956A4B" transform="translate(163,58)"/>
<path d="M0 0 C0.99 0.495 0.99 0.495 2 1 C1.67 1.66 1.34 2.32 1 3 C0.67 2.01 0.34 1.02 0 0 Z " fill="#AA442B" transform="translate(351,51)"/>
<path d="M0 0 C0.99 0.495 0.99 0.495 2 1 C1.67 1.66 1.34 2.32 1 3 C0.67 2.01 0.34 1.02 0 0 Z " fill="#77483B" transform="translate(346,43)"/>
<path d="M0 0 C0.66 0.33 1.32 0.66 2 1 C1.01 1 0.02 1 -1 1 C-0.67 0.67 -0.34 0.34 0 0 Z " fill="#66513C" transform="translate(187,32)"/>
<path d="M0 0 C0.66 0.33 1.32 0.66 2 1 C1.01 1 0.02 1 -1 1 C-0.67 0.67 -0.34 0.34 0 0 Z " fill="#CA2525" transform="translate(191,29)"/>
<path d="M0 0 C0.66 0.33 1.32 0.66 2 1 C1.01 1 0.02 1 -1 1 C-0.67 0.67 -0.34 0.34 0 0 Z " fill="#7A543B" transform="translate(197,25)"/>
<path d="M0 0 C0.99 0.33 1.98 0.66 3 1 C2.01 1 1.02 1 0 1 C0 0.67 0 0.34 0 0 Z " fill="#5F4A2A" transform="translate(324,22)"/>
<path d="M0 0 C4 1 4 1 4 1 Z " fill="#7A543B" transform="translate(282,13)"/>
<path d="M0 0 C3 1 3 1 3 1 Z " fill="#FFFFFF" transform="translate(327,498)"/>
<path d="M0 0 C3 1 3 1 3 1 Z " fill="#FFFFFF" transform="translate(183,496)"/>
<path d="M0 0 C3 1 3 1 3 1 Z " fill="#FFFFFF" transform="translate(335,495)"/>
<path d="M0 0 C3 1 3 1 3 1 Z " fill="#FFF4F4" transform="translate(180,495)"/>
<path d="M0 0 C3 1 3 1 3 1 Z " fill="#FFFFFF" transform="translate(177,494)"/>
<path d="M0 0 C3 1 3 1 3 1 Z " fill="#FFFFD4" transform="translate(358,486)"/>
<path d="M0 0 C3 1 3 1 3 1 Z " fill="#E2E2E2" transform="translate(155,486)"/>
<path d="M0 0 C3 1 3 1 3 1 Z " fill="#D4D48E" transform="translate(152,485)"/>
<path d="M0 0 C0.33 0.66 0.66 1.32 1 2 C0.34 1.67 -0.32 1.34 -1 1 C-0.67 0.67 -0.34 0.34 0 0 Z " fill="#FFF3C8" transform="translate(394,468)"/>
<path d="" fill="#FFFFFF" transform="translate(0,0)"/>
<path d="M0 0 C0.66 0 1.32 0 2 0 C1.67 0.66 1.34 1.32 1 2 C0.67 1.34 0.34 0.68 0 0 Z " fill="#E8D1A4" transform="translate(363,211)"/>
<path d="" fill="#EED1C0" transform="translate(0,0)"/>
<path d="" fill="#FFEEC3" transform="translate(0,0)"/>
<path d="M0 0 C0.99 0.495 0.99 0.495 2 1 C1.01 1.495 1.01 1.495 0 2 C0 1.34 0 0.68 0 0 Z " fill="#C1A9A3" transform="translate(141,174)"/>
<path d="" fill="#806040" transform="translate(0,0)"/>
<path d="" fill="#8E7147" transform="translate(0,0)"/>
<path d="M0 0 C3 1 3 1 3 1 Z " fill="#8E7147" transform="translate(215,16)"/>
<path d="M0 0 C3 1 3 1 3 1 Z " fill="#B84747" transform="translate(218,15)"/>
<path d="M0 0 C3 1 3 1 3 1 Z " fill="#5D4C26" transform="translate(286,14)"/>
<path d="M0 0 C3 1 3 1 3 1 Z " fill="#7A693E" transform="translate(222,14)"/>
<path d="M0 0 C2 1 2 1 2 1 Z " fill="#FFFFFF" transform="translate(338,494)"/>
<path d="M0 0 C2 1 2 1 2 1 Z " fill="#FFFFFF" transform="translate(341,493)"/>
<path d="M0 0 C2 1 2 1 2 1 Z " fill="#FFDFDF" transform="translate(349,490)"/>
<path d="M0 0 C2 1 2 1 2 1 Z " fill="#FFE5E5" transform="translate(356,487)"/>
<path d="M0 0 C2 1 2 1 2 1 Z " fill="#FFBBBB" transform="translate(158,487)"/>
<path d="M0 0 C2 1 2 1 2 1 Z " fill="#FFBBBB" transform="translate(150,484)"/>
<path d="M0 0 C2 1 2 1 2 1 Z " fill="#FFC2B0" transform="translate(366,483)"/>
<path d="M0 0 C2 1 2 1 2 1 Z " fill="#FFEDB0" transform="translate(148,483)"/>
<path d="M0 0 C2 1 2 1 2 1 Z " fill="#FFEFB4" transform="translate(368,482)"/>
<path d="M0 0 C2 1 2 1 2 1 Z " fill="#EFDFB4" transform="translate(146,482)"/>
<path d="M0 0 C2 1 2 1 2 1 Z " fill="#FFED9B" transform="translate(370,481)"/>
<path d="M0 0 C2 1 2 1 2 1 Z " fill="#EDEDDA" transform="translate(144,481)"/>
<path d="M0 0 C2 1 2 1 2 1 Z " fill="#FFE5E5" transform="translate(372,480)"/>
<path d="M0 0 C2 1 2 1 2 1 Z " fill="#E5E5CC" transform="translate(142,480)"/>
<path d="M0 0 C2 1 2 1 2 1 Z " fill="#FFD0D0" transform="translate(380,476)"/>
<path d="M0 0 C2 1 2 1 2 1 Z " fill="#EAD0BB" transform="translate(134,476)"/>
<path d="M0 0 C2 1 2 1 2 1 Z " fill="#EFDFDF" transform="translate(382,475)"/>
<path d="M0 0 C2 1 2 1 2 1 Z " fill="#C4B4B4" transform="translate(132,475)"/>
<path d="M0 0 C2 1 2 1 2 1 Z " fill="#FFFFD4" transform="translate(385,473)"/>
<path d="M0 0 C2 1 2 1 2 1 Z " fill="#FFE5E5" transform="translate(391,470)"/>
<path d="M0 0 C2 1 2 1 2 1 Z " fill="#FFC5C5" transform="translate(123,470)"/>
<path d="M0 0 C2 1 2 1 2 1 Z " fill="#FFFFFF" transform="translate(114,464)"/>
<path d="" fill="#FFFFFF" transform="translate(0,0)"/>
<path d="" fill="#FFFFFF" transform="translate(0,0)"/>
<path d="" fill="#FFFFFF" transform="translate(0,0)"/>
<path d="" fill="#FFFFFF" transform="translate(0,0)"/>
<path d="" fill="#FFFFFF" transform="translate(0,0)"/>
<path d="M0 0 C2 1 2 1 2 1 Z " fill="#FFFFFF" transform="translate(368,363)"/>
<path d="M0 0 C2 1 2 1 2 1 Z " fill="#FFFFFF" transform="translate(140,363)"/>
<path d="M0 0 C2 1 2 1 2 1 Z " fill="#FFFFFF" transform="translate(365,361)"/>
<path d="M0 0 C2 1 2 1 2 1 Z " fill="#FFFFFF" transform="translate(144,360)"/>
<path d="" fill="#E5E5B2" transform="translate(0,0)"/>
<path d="M0 0 C2 1 2 1 2 1 Z " fill="#9E614F" transform="translate(142,221)"/>
<path d="" fill="#808060" transform="translate(0,0)"/>
<path d="" fill="#8C7359" transform="translate(0,0)"/>
<path d="" fill="#9E614F" transform="translate(0,0)"/>
<path d="" fill="#FF7F7F" transform="translate(0,0)"/>
<path d="" fill="#FFB4B4" transform="translate(0,0)"/>
<path d="" fill="#FFD4D4" transform="translate(0,0)"/>
<path d="" fill="#FFE5CC" transform="translate(0,0)"/>
<path d="" fill="#FFFFBF" transform="translate(0,0)"/>
<path d="" fill="#E5D0D0" transform="translate(0,0)"/>
<path d="" fill="#E5E5E5" transform="translate(0,0)"/>
<path d="" fill="#FFFFFF" transform="translate(0,0)"/>
<path d="M0 0 C2 1 2 1 2 1 Z " fill="#BF4040" transform="translate(137,171)"/>
<path d="" fill="#552A2A" transform="translate(0,0)"/>
<path d="" fill="#9F8040" transform="translate(0,0)"/>
<path d="M0 0 C2 1 2 1 2 1 Z " fill="#807060" transform="translate(137,152)"/>
<path d="M0 0 C2 1 2 1 2 1 Z " fill="#73614F" transform="translate(139,151)"/>
<path d="" fill="#8C7339" transform="translate(0,0)"/>
<path d="" fill="#D4AA2A" transform="translate(0,0)"/>
<path d="" fill="#775D44" transform="translate(0,0)"/>
<path d="" fill="#8C7359" transform="translate(0,0)"/>
<path d="" fill="#8C6353" transform="translate(0,0)"/>
<path d="" fill="#D4AA2A" transform="translate(0,0)"/>
<path d="" fill="#99664C" transform="translate(0,0)"/>
<path d="" fill="#BF4020" transform="translate(0,0)"/>
<path d="" fill="#808080" transform="translate(0,0)"/>
<path d="" fill="#956A20" transform="translate(0,0)"/>
<path d="" fill="#DF4020" transform="translate(0,0)"/>
<path d="" fill="#8C7339" transform="translate(0,0)"/>
<path d="" fill="#55402A" transform="translate(0,0)"/>
<path d="" fill="#808040" transform="translate(0,0)"/>
<path d="" fill="#806040" transform="translate(0,0)"/>
<path d="M0 0 C2 1 2 1 2 1 Z " fill="#956A40" transform="translate(193,28)"/>
<path d="M0 0 C2 1 2 1 2 1 Z " fill="#AA552A" transform="translate(205,21)"/>
<path d="M0 0 C2 1 2 1 2 1 Z " fill="#493624" transform="translate(320,20)"/>
<path d="M0 0 C2 1 2 1 2 1 Z " fill="#AC7353" transform="translate(207,20)"/>
<path d="M0 0 C2 1 2 1 2 1 Z " fill="#AC7339" transform="translate(213,17)"/>
<path d="" fill="#FFD5D5" transform="translate(0,0)"/>
<path d="" fill="#FFD5AA" transform="translate(0,0)"/>
<path d="" fill="#FFFFFF" transform="translate(0,0)"/>
<path d="" fill="#FFFFFF" transform="translate(0,0)"/>
<path d="" fill="#FFD5D5" transform="translate(0,0)"/>
<path d="" fill="#FFAAAA" transform="translate(0,0)"/>
<path d="" fill="#808080" transform="translate(0,0)"/>
<path d="" fill="#FFFFFF" transform="translate(0,0)"/>
<path d="" fill="#FFFFFF" transform="translate(0,0)"/>
<path d="" fill="#FFFFFF" transform="translate(0,0)"/>
<path d="" fill="#FFFFFF" transform="translate(0,0)"/>
<path d="" fill="#FFFFFF" transform="translate(0,0)"/>
<path d="" fill="#FFFFFF" transform="translate(0,0)"/>
<path d="" fill="#FFFFFF" transform="translate(0,0)"/>
<path d="" fill="#FFFFFF" transform="translate(0,0)"/>
<path d="" fill="#FFFFFF" transform="translate(0,0)"/>
<path d="" fill="#FFFFFF" transform="translate(0,0)"/>
<path d="" fill="#FFFFFF" transform="translate(0,0)"/>
<path d="" fill="#FFFFFF" transform="translate(0,0)"/>
<path d="" fill="#FFFFFF" transform="translate(0,0)"/>
<path d="" fill="#FFFFFF" transform="translate(0,0)"/>
<path d="" fill="#FFFFFF" transform="translate(0,0)"/>
<path d="" fill="#808080" transform="translate(0,0)"/>
<path d="" fill="#926D49" transform="translate(0,0)"/>
<path d="" fill="#805555" transform="translate(0,0)"/>
<path d="" fill="#BFBF80" transform="translate(0,0)"/>
<path d="" fill="#FFFF55" transform="translate(0,0)"/>
<path d="" fill="#FFFFFF" transform="translate(0,0)"/>
<path d="" fill="#FFCCCC" transform="translate(0,0)"/>
<path d="" fill="#FFFFBF" transform="translate(0,0)"/>
<path d="" fill="#FFD5AA" transform="translate(0,0)"/>
<path d="" fill="#FFBFBF" transform="translate(0,0)"/>
<path d="" fill="#CCCC99" transform="translate(0,0)"/>
<path d="" fill="#BFBFBF" transform="translate(0,0)"/>
<path d="" fill="#996666" transform="translate(0,0)"/>
<path d="" fill="#808040" transform="translate(0,0)"/>
<path d="" fill="#808040" transform="translate(0,0)"/>
<path d="" fill="#FFFFFF" transform="translate(0,0)"/>
<path d="" fill="#000000" transform="translate(0,0)"/>
<path d="" fill="#806040" transform="translate(0,0)"/>
<path d="" fill="#AA8055" transform="translate(0,0)"/>
<path d="" fill="#AA5555" transform="translate(0,0)"/>
<path d="" fill="#AA8055" transform="translate(0,0)"/>
<path d="" fill="#AA5555" transform="translate(0,0)"/>
<path d="" fill="#808055" transform="translate(0,0)"/>
<path d="" fill="#996666" transform="translate(0,0)"/>
<path d="" fill="#996666" transform="translate(0,0)"/>
<path d="" fill="#926D49" transform="translate(0,0)"/>
<path d="" fill="#AA5555" transform="translate(0,0)"/>
<path d="" fill="#808040" transform="translate(0,0)"/>
<path d="" fill="#805555" transform="translate(0,0)"/>
<path d="" fill="#805555" transform="translate(0,0)"/>
<path d="" fill="#AA5555" transform="translate(0,0)"/>
<path d="" fill="#808040" transform="translate(0,0)"/>
<path d="" fill="#926D49" transform="translate(0,0)"/>
<path d="" fill="#AA5555" transform="translate(0,0)"/>
<path d="" fill="#926D49" transform="translate(0,0)"/>
<path d="" fill="#926D49" transform="translate(0,0)"/>
<path d="" fill="#AA8055" transform="translate(0,0)"/>
<path d="" fill="#926D49" transform="translate(0,0)"/>
<path d="" fill="#80552B" transform="translate(0,0)"/>
<path d="" fill="#996633" transform="translate(0,0)"/>
<path d="" fill="#805555" transform="translate(0,0)"/>
<path d="" fill="#996666" transform="translate(0,0)"/>
<path d="" fill="#926D49" transform="translate(0,0)"/>
<path d="" fill="#BF8040" transform="translate(0,0)"/>
</svg>
